<svg xmlns="http://www.w3.org/2000/svg" viewBox="0 0 320.08 77.31"><script xmlns=""/><title>Asset 23</title><g id="Layer_2" data-name="Layer 2"><g id="Layer_1-2" data-name="Layer 1"><g id="vz9LGD"><path d="M26.12,16.34c5.68,0,11.35.07,17,.37,1.06.06,2.13.19,3.19.25a.53.53,0,0,1,.54.42,3.64,3.64,0,0,1-.63,3.38,8.85,8.85,0,0,1-4.4,3.08,30.75,30.75,0,0,1-8.19,1.38c-4.31.28-8.61.22-12.92.12a45,45,0,0,1-7.59-.74,12.49,12.49,0,0,1-5.69-2.32,5.37,5.37,0,0,1-2-2.69,4.92,4.92,0,0,1,0-2.38c.06-.27.26-.22.44-.24,2.61-.26,5.23-.37,7.86-.46C17.92,16.37,22,16.34,26.12,16.34Z" style="fill:#0b2b4a"/><path d="M23.67,30.45A.45.45,0,0,1,24,31c-.08.91-.14,1.82-.22,2.72,0,.14,0,.29-.14.38-.67.46-1.33.92-2.06,1.35.52-1.32,1.16-2.6.56-4.09-.42.46-.85.9-1.26,1.37a.78.78,0,0,1-.65.29C19.12,33,18,33,17,33a.58.58,0,0,1-.58-.3c-.36-.55-.73-1.09-1.1-1.64-.11-.16-.2-.35-.48-.24-.87.36-1.74.7-2.61,1-.17.07-.25,0-.16-.15a1.3,1.3,0,0,1,.26-.31,20.12,20.12,0,0,0,1.36-1.57,2.55,2.55,0,0,1,1.68-1" style="fill:#0b2b4a"/><path d="M36.3,28.73a6.73,6.73,0,0,0,.86.21,2.29,2.29,0,0,1,1.58,1c.53.65,1.1,1.28,1.71,2a3,3,0,0,1-1.08-.33c-.54-.2-1.09-.41-1.61-.65a.5.5,0,0,0-.74.23c-.34.54-.73,1.05-1.08,1.59a.52.52,0,0,1-.54.28c-1.11,0-2.23,0-3.35,0a.69.69,0,0,1-.56-.27c-.41-.47-.85-.92-1.28-1.4a4.79,4.79,0,0,0,.66,4.08l-.13.07-2.06-1.43a.29.29,0,0,1-.1-.26c-.08-1-.14-1.94-.23-2.91,0-.28.15-.35.33-.44" style="fill:#0b2b4a"/><path d="M20.67,70.5c0-.22,0-.44,0-.65s0-.43.17-.43.12.26.11.42C20.64,70,20.86,70.32,20.67,70.5Z" style="fill:#0b2b4a"/><path d="M45.77,29.5c.24-1.48,0-2-1.26-2.85a.43.43,0,0,1-.19-.43c0-.66,0-1.33,0-2,0-.12,0-.33-.2-.25a3.37,3.37,0,0,0-1.07.49c-.21.17-.08.47-.12.71s-.08.6-.11.89c-.4,4.13-1,8.22-1.82,12.3a15.68,15.68,0,0,1-4.84,9c-.26.23-.34.23-.49-.07-.41-.88-.85-1.74-1.27-2.61a4.26,4.26,0,0,0-2.26-2.16c-1.39-.61-2.78-1.24-4.16-1.87l-.48-.23,0-.13h2.72a11.88,11.88,0,0,0-1.46-1.17.23.23,0,0,0-.27,0,2,2,0,0,1-1.46.18c-1.13-.08-2.28.26-3.39-.21a.16.16,0,0,0-.13,0,13.43,13.43,0,0,0-1.58,1.25h2.82c-1.48.76-3,1.45-4.47,2.11a4.46,4.46,0,0,0-2.41,2.27c-.36.77-.75,1.52-1.13,2.27s-.31.65-.82.17a14.68,14.68,0,0,1-4.34-7.46c-.43-1.81-.73-3.63-1-5.46Q9.79,29.84,9.4,25.4c-.07-.73-.26-1.18-1-1.33l-.08,0C8.08,23.9,8,24,8,24.26c0,.64,0,1.29,0,1.93,0,.2,0,.34-.24.44A2,2,0,0,0,6.32,29c.16,1.17.38,2.33.53,3.49a35.09,35.09,0,0,1,.69,6.13,1.61,1.61,0,0,0,1.63,1.8c.23,0,.33.08.36.32a12.62,12.62,0,0,1-.26,4.5c-.3,1.24-.84,2.39-1.22,3.6a10.46,10.46,0,0,0,.45,8c.05.11.05.33.21.32s.15-.2.2-.33c.22-.55.45-1.11.68-1.66H9.7a13.72,13.72,0,0,0,4,11.17,12.24,12.24,0,0,0,.43-2.69.49.49,0,0,1,.21.36,15.56,15.56,0,0,0,2.93,6,16.43,16.43,0,0,0,2.8,2.79c.09.08.18.2.32.14s.07-.19.08-.29l.18-2.21c.1-.21,0-.45.09-.67s.12,0,.18,0a4.3,4.3,0,0,0,.37,1.46,9.75,9.75,0,0,0,4.65,5,.29.29,0,0,0,.34,0,12,12,0,0,0,2.74-2,9.54,9.54,0,0,0,2.43-4.61c.11,1.11.23,2.22.35,3.43A16.11,16.11,0,0,0,35.75,69,17.87,17.87,0,0,0,38,63.77a14.49,14.49,0,0,0,.51,2.61,14,14,0,0,0,4.06-11.14c.3.58.53,1.16.77,1.74,0,.08,0,.2.12.22s.16-.11.21-.21a9.18,9.18,0,0,0,1-3.36,14.83,14.83,0,0,0-1.28-6.88,12,12,0,0,1-.72-6c0-.22.09-.31.34-.34a1.63,1.63,0,0,0,1.54-1.75,10.6,10.6,0,0,1,0-1.69C45,34.5,45.36,32,45.77,29.5Zm-16.32,18a6.62,6.62,0,0,1-3.9.71,6.09,6.09,0,0,1-2.07-.4c-.79-.37-1.55-.82-2.33-1.21-.29-.15-.26-.25,0-.43s.66-.52,1-.81a.48.48,0,0,1,.59-.1,8.33,8.33,0,0,0,1.5.52,9,9,0,0,0,5.48-.52c.17-.07.32-.12.48,0,.42.37.86.73,1.32,1.11A18.26,18.26,0,0,1,29.45,47.49Z" style="fill:#0b2b4a"/><path d="M51.86,7.79A60.87,60.87,0,0,0,37.8,1.84,46.4,46.4,0,0,0,27.34,0a40.46,40.46,0,0,0-11.73,1.5,57.73,57.73,0,0,0-10,3.59C3.77,5.94,2,6.86.31,7.85.16,7.94,0,8,0,8.26A6,6,0,0,0,3.18,13a1.17,1.17,0,0,0,.9.11c.86-.22,1.74-.41,2.61-.61a3.85,3.85,0,0,1,.58-.08c-.22,0-.36.24-.58.28l-2.36.93c-.18.08-.33.15-.3.4a3.07,3.07,0,0,0,.74,1.84,1,1,0,0,0,.92.37c1.65-.24,3.31-.38,5-.48,3.48-.22,7-.34,10.45-.39,5.25-.07,10.5,0,15.74.17,3.27.12,6.53.28,9.77.72a.82.82,0,0,0,.54-.13,2.47,2.47,0,0,0,1-1.76c.1-.38.06-.68-.37-.8-.2-.23-.51-.16-.75-.3h0a6.11,6.11,0,0,0-1.55-.67,1.6,1.6,0,0,1-.56-.18,2,2,0,0,1,.67.18,14.12,14.12,0,0,0,1.83.37h0c.3.13.63.1.94.2A1,1,0,0,0,49,13.1a5.92,5.92,0,0,0,3.26-4.53A.62.62,0,0,0,51.86,7.79Zm-22.25,4.5A5,5,0,0,1,21.7,11a6.07,6.07,0,0,1-.77-3A5.63,5.63,0,0,1,23.72,3a4.86,4.86,0,0,1,6.55,1.57A6.14,6.14,0,0,1,29.61,12.29Z" style="fill:#0b2b4a"/><path d="M29,8.9A1.59,1.59,0,0,0,28.48,8c-.07.15-.18.26-.16.34.09.33-.71.52-.12.9a.16.16,0,0,1,0,.08.85.85,0,0,1-.82.36.52.52,0,0,1-.51-.52c0-.37-.07-.75-.08-1.13s-.15-.7,0-1,.53-.09.8-.12.28-.12.28-.31,0-.35-.26-.38l-.56-.06c-.13,0-.3.06-.35-.14s.12-.2.22-.27a.94.94,0,0,0,.14-1.41,1.15,1.15,0,0,0-1.61-.06,1,1,0,0,0,.12,1.48c.09.09.24.14.19.29s-.21.1-.33.12l-.56,0c-.23,0-.27.18-.27.37a.26.26,0,0,0,.28.3l.61,0c.14,0,.26,0,.26.21a10.6,10.6,0,0,1-.14,2.11c-.06.36-.51.5-.89.34s-.31-.21-.21-.52a.22.22,0,0,0,0-.17c-.15-.31-.31-.61-.46-.91-.19.06-.24.22-.32.35-.28.46-.26.54,0,.94,0,0,0,.12,0,.18a1.48,1.48,0,0,0,1.08,1.24,3.34,3.34,0,0,1,1.28.56c.1.1.2.06.29,0a2.25,2.25,0,0,1,.93-.42c.72-.22,1.35-.55,1.4-1.44,0-.06,0-.15.08-.14C29.27,9.33,29,9,29,8.9ZM26.27,5.39A.42.42,0,0,1,25.8,5c0-.29.19-.4.44-.44s.47.12.47.42A.41.41,0,0,1,26.27,5.39Z" style="fill:#0b2b4a"/></g><path d="M73.58,32.91l6.5-8.2,2.45,3.4A16.8,16.8,0,0,0,86.91,30a17.2,17.2,0,0,0,4.72.7,8.2,8.2,0,0,0,3.83-.78,2.44,2.44,0,0,0,1.47-2.27,2.57,2.57,0,0,0-1.72-2.3,36.33,36.33,0,0,0-5.48-1.95,62.37,62.37,0,0,1-7-2.43A13.29,13.29,0,0,1,78,17.53a8.48,8.48,0,0,1-2-5.87,9.77,9.77,0,0,1,2-6.13,12.06,12.06,0,0,1,5.27-3.87,19.41,19.41,0,0,1,7.2-1.3,22.41,22.41,0,0,1,6.13.87,20.51,20.51,0,0,1,5.72,2.63L107,5.06l-5.75,8.65-2.2-3.15a10.68,10.68,0,0,0-3.85-2.18,14.35,14.35,0,0,0-4.55-.77,7.7,7.7,0,0,0-4,.92,3,3,0,0,0-1.55,2.73,2.49,2.49,0,0,0,1.68,2.22,36.92,36.92,0,0,0,5.32,1.93,58.66,58.66,0,0,1,7,2.5,13.63,13.63,0,0,1,4.87,3.62,9,9,0,0,1,2,6.08,9.09,9.09,0,0,1-1.87,5.82,11.18,11.18,0,0,1-5,3.55,19.57,19.57,0,0,1-7,1.18,26.62,26.62,0,0,1-7-.95,25.89,25.89,0,0,1-6.5-2.75Z" style="fill:#0b2b4a"/><path d="M113.63,32.66V6.26l-2-5H125l-2,5v8.25l11.3-11-1-2.2H149l-5.6,4.25-14.3,14.4,13.8,13.25h0l6.05,4.5H132.38l.9-2L123,25.36v7.3l2,5H111.63Z" style="fill:#0b2b4a"/><path d="M155.53,32.66V6.26l-2-5h13.35l-2,5v26.4l2,5H153.53Z" style="fill:#0b2b4a"/><path d="M175.38,32.66V6.26l-2-5h19.1q6.86,0,10.23,2.75t3.37,9.25q0,6.26-3.42,9.17t-10.18,2.93h-7.75v7.3l2,5H173.38Zm17-14.65a5,5,0,0,0,2.93-.68,2.68,2.68,0,0,0,1.12-1.6,12.36,12.36,0,0,0,.2-2.47,11.73,11.73,0,0,0-.22-2.65,2.36,2.36,0,0,0-1.13-1.45,5.75,5.75,0,0,0-2.9-.55h-7.6V18Z" style="fill:#0b2b4a"/><path d="M212.83,32.66V6.26l-2-5h19.1q6.85,0,10.23,2.75t3.37,9.25q0,6.26-3.42,9.17t-10.18,2.93h-7.75v7.3l2,5H210.83ZM229.78,18a5,5,0,0,0,2.93-.68,2.68,2.68,0,0,0,1.12-1.6,12.36,12.36,0,0,0,.2-2.47,11.73,11.73,0,0,0-.22-2.65,2.36,2.36,0,0,0-1.13-1.45,5.75,5.75,0,0,0-2.9-.55h-7.6V18Z" style="fill:#0b2b4a"/><path d="M250.28,32.66V6.26l-2-5H278l2,9.35-5-2h-15.4v7.15h10.25l5-1.5V24.61l-5-1.5H259.63v7.2H275l5-3.5-2,10.85H248.28Z" style="fill:#0b2b4a"/><path d="M288,32.66V6.26l-2-5h19.1q6.85,0,10.23,2.75t3.37,9.25c0,3.36-.74,6-2.22,7.9a10.82,10.82,0,0,1-6.63,3.75l5.65,8,4.6,4.75h-14.8l1.55-3.45-6.05-8.85h-3.45v7.3l2,5H286ZM304.93,18a5,5,0,0,0,2.93-.68,2.68,2.68,0,0,0,1.12-1.6,12.36,12.36,0,0,0,.2-2.47,11.73,11.73,0,0,0-.22-2.65,2.36,2.36,0,0,0-1.13-1.45,5.75,5.75,0,0,0-2.9-.55h-7.6V18Z" style="fill:#0b2b4a"/><path d="M77.08,71.66V45.26l-2-5H96.33a12.6,12.6,0,0,1,5.9,1.35,10.06,10.06,0,0,1,4,3.65,9.3,9.3,0,0,1,1.42,5,11.87,11.87,0,0,1-.8,4.5,9,9,0,0,1-2.75,3.6,9.71,9.71,0,0,1,3.15,13.25,9.91,9.91,0,0,1-4,3.67A13.22,13.22,0,0,1,97,76.66h-22Zm18.2-16.9a3,3,0,0,0,2.3-1.15,3.91,3.91,0,0,0,1-2.65,3.55,3.55,0,0,0-.85-2.33,3,3,0,0,0-2.45-1H86.43v7.15Zm.5,14.45a2.73,2.73,0,0,0,2.25-1,3.69,3.69,0,0,0,.85-2.4,4,4,0,0,0-.82-2.65,2.73,2.73,0,0,0-2.23-1h-9.4v7.1Z" style="fill:#0b2b4a"/><path d="M114.33,71.66V45.26l-2-5h13.35l-2,5V69.31h14.4l5-3.5-2,10.85H112.33Z" style="fill:#0b2b4a"/><path d="M149.48,71.91q-4.39-5.4-4.4-13.65t4.4-13.58q4.4-5.37,14.65-5.37t14.65,5.37q4.4,5.39,4.4,13.58t-4.4,13.65q-4.4,5.4-14.65,5.4T149.48,71.91Zm20.75-3.6a7.53,7.53,0,0,0,2.78-4.1,23.06,23.06,0,0,0,.67-5.95,22.79,22.79,0,0,0-.67-5.93,7.46,7.46,0,0,0-2.78-4.07,12.43,12.43,0,0,0-12.2,0,7.44,7.44,0,0,0-2.77,4.07,22.76,22.76,0,0,0-.68,5.93,23,23,0,0,0,.68,5.95,7.51,7.51,0,0,0,2.77,4.1,12.43,12.43,0,0,0,12.2,0Z" style="fill:#0b2b4a"/><path d="M189.53,71.06a21,21,0,0,1-3.85-12.8,20.48,20.48,0,0,1,3.8-12.5q3.79-5.16,12.05-6.25a24.67,24.67,0,0,1,3.45-.2,22.58,22.58,0,0,1,10.1,2.15l4.6,1.3-6.25,8.65a5.48,5.48,0,0,0-2.65-3.35l-.6-.25-.15-.05a13.28,13.28,0,0,0-4.5-.75q-4.91,0-7.57,2.92t-2.68,8.33q0,5.51,2.7,8.62A9.55,9.55,0,0,0,205.63,70a10.45,10.45,0,0,0,4.08-.75,8.1,8.1,0,0,0,2.92-2.05v-3L211.13,60h11l-1.5,4.45v6.3a37.34,37.34,0,0,1-3.3,2.7,21.21,21.21,0,0,1-12.5,3.85c-1,0-2,0-3.05-.15Q193.38,76.31,189.53,71.06Z" style="fill:#0b2b4a"/><path d="M234.76,76.31a23.84,23.84,0,0,1-6.38-2.85l-5.25-1.55,6.5-8.2,2.9,4a13.92,13.92,0,0,0,4,1.9,15.46,15.46,0,0,0,4.42.65,9.25,9.25,0,0,0,4.18-.83A2.64,2.64,0,0,0,246.73,67,2.55,2.55,0,0,0,245,64.71a34.28,34.28,0,0,0-5.43-1.9,64.19,64.19,0,0,1-7.15-2.43,12.87,12.87,0,0,1-4.85-3.55,9,9,0,0,1-2.05-6.12,9.77,9.77,0,0,1,2-6.13,12.27,12.27,0,0,1,5.27-3.9,19.21,19.21,0,0,1,7.2-1.32,22.46,22.46,0,0,1,6.13.87,20.64,20.64,0,0,1,5.72,2.63l4.75,1.2-5.75,8.65-2.45-3.5a10.77,10.77,0,0,0-7.65-2.7,9,9,0,0,0-4.47,1,3.11,3.11,0,0,0-1.83,2.78,2.42,2.42,0,0,0,1.68,2.15,35.18,35.18,0,0,0,5.32,1.8,65.11,65.11,0,0,1,7.2,2.45,13.39,13.39,0,0,1,5,3.62,9.26,9.26,0,0,1,2.1,6.28,8.89,8.89,0,0,1-1.9,5.7A12,12,0,0,1,248.63,76a19.43,19.43,0,0,1-7.15,1.28A24.84,24.84,0,0,1,234.76,76.31Z" style="fill:#0b2b4a"/></g></g></svg>