<svg xmlns="http://www.w3.org/2000/svg" viewBox="0 0 512 512"><script xmlns=""/><!--!Font Awesome Free 6.5.2 by @fontawesome - https://fontawesome.com License - https://fontawesome.com/license/free Copyright 2024 Fonticons, Inc.--><path d="M500 224h-30.4C455.7 130.3 381.7 56.3 288 42.4V12c0-6.6-5.4-12-12-12h-40c-6.6 0-12 5.4-12 12v30.4C130.3 56.3 56.3 130.3 42.4 224H12c-6.6 0-12 5.4-12 12v40c0 6.6 5.4 12 12 12h30.4C56.3 381.7 130.3 455.7 224 469.6V500c0 6.6 5.4 12 12 12h40c6.6 0 12-5.4 12-12v-30.4C381.7 455.7 455.7 381.7 469.6 288H500c6.6 0 12-5.4 12-12v-40c0-6.6-5.4-12-12-12zM288 404.6V364c0-6.6-5.4-12-12-12h-40c-6.6 0-12 5.4-12 12v40.6C165.8 392.2 119.8 346.2 107.4 288H148c6.6 0 12-5.4 12-12v-40c0-6.6-5.4-12-12-12h-40.6C119.8 165.8 165.8 119.8 224 107.4V148c0 6.6 5.4 12 12 12h40c6.6 0 12-5.4 12-12v-40.6C346.2 119.8 392.2 165.8 404.6 224H364c-6.6 0-12 5.4-12 12v40c0 6.6 5.4 12 12 12h40.6C392.2 346.2 346.2 392.2 288 404.6zM288 256c0 17.7-14.3 32-32 32s-32-14.3-32-32c0-17.7 14.3-32 32-32s32 14.3 32 32z"/></svg>